<svg width="1em" height="1em" viewBox="0 0 14 14" fill="none" xmlns="http://www.w3.org/2000/svg">
<path id="checkbox-outline" d="M2 1.2H12V-1.2H2V1.2ZM12.8 2V12H15.2V2H12.8ZM12 12.8H2V15.2H12V12.8ZM1.2 12V2H-1.2V12H1.2ZM2 12.8C1.55817 12.8 1.2 12.4418 1.2 12H-1.2C-1.2 13.7673 0.232689 15.2 2 15.2V12.8ZM12.8 12C12.8 12.4418 12.4418 12.8 12 12.8V15.2C13.7673 15.2 15.2 13.7673 15.2 12H12.8ZM12 1.2C12.4418 1.2 12.8 1.55817 12.8 2H15.2C15.2 0.232689 13.7673 -1.2 12 -1.2V1.2ZM2 -1.2C0.232689 -1.2 -1.2 0.232689 -1.2 2H1.2C1.2 1.55817 1.55817 1.2 2 1.2V-1.2Z" fill="currentColor" fill-opacity="0.3" />
</svg>
