<svg width="1em" height="1em" viewBox="0 0 24 24" fill="none" xmlns="http://www.w3.org/2000/svg">
<path d="M0.956756 0.00170037H9.48943C9.6469 -0.00775516 9.80422 0.0223457 9.94561 0.0889854C10.087 0.155625 10.2075 0.256462 10.295 0.381387C10.3825 0.506312 10.434 0.650935 10.4443 0.800758C10.4545 0.950581 10.4232 1.10034 10.3535 1.23502L5.22309 10.2794L0.0926874 1.23502C0.0229491 1.10034 -0.00835729 0.950581 0.00190659 0.800758C0.0121705 0.650935 0.063644 0.506312 0.151167 0.381387C0.23869 0.256462 0.359187 0.155625 0.500578 0.0889854C0.641968 0.0223457 0.799285 -0.00775516 0.956756 0.00170037Z" fill="#F57C63"/>
<path d="M23.0431 23.9827H14.5105C14.353 23.9922 14.1957 23.9621 14.0543 23.8954C13.9129 23.8288 13.7924 23.728 13.7049 23.603C13.6174 23.4781 13.5659 23.3335 13.5556 23.1837C13.5454 23.0339 13.5767 22.8841 13.6464 22.7494L18.7768 13.7051L23.9072 22.7494C23.9769 22.8841 24.0083 23.0339 23.998 23.1837C23.9877 23.3335 23.9363 23.4781 23.8487 23.603C23.7612 23.728 23.6407 23.8288 23.4993 23.8954C23.3579 23.9621 23.2006 23.9922 23.0431 23.9827Z" fill="#35DF91"/>
<path d="M17.4991 0.00146484L14.7269 0.0185943L0.739746 23.9998L3.51197 23.9827L17.4991 0.00146484Z" fill="#A6B5FF" fill-opacity="0.8"/>
<path d="M23.2598 0.00146484L20.4876 0.0185943L6.50049 23.9998L9.27271 23.9827L23.2598 0.00146484Z" fill="#A6B5FF" fill-opacity="0.8"/>
</svg>
