<svg width="1em" height="0.95em" viewBox="0 0 15 14" fill="none" xmlns="http://www.w3.org/2000/svg">
<path fill-rule="evenodd" clip-rule="evenodd" d="M3.46649 2.8H4.86649V2.1H10.4665V2.8H11.8665V2.1H13.2665V4.2H2.06652V2.1H3.46649V2.8ZM2.06652 5.6V12.6H13.2665V5.6H2.06652ZM4.86649 0.700001H10.4665V0H11.8665V0.700001H13.2665C14.0397 0.700001 14.6665 1.3268 14.6665 2.1V12.6C14.6665 13.3732 14.0397 14 13.2665 14H2.0665C1.29331 14 0.666504 13.3732 0.666504 12.6V2.1C0.666504 1.3268 1.29331 0.700001 2.0665 0.700001H3.46649V0H4.86649V0.700001Z" fill="currentColor" />
</svg>
