<svg width="1em" height="1em" viewBox="0 0 14 14" fill="none" xmlns="http://www.w3.org/2000/svg">
<path fill-rule="evenodd" clip-rule="evenodd" d="M9.57578 5.37574L7.60005 7.35147V1H6.40005V7.35147L4.42431 5.37574L3.57578 6.22427L7.00005 9.64853L10.4243 6.22427L9.57578 5.37574ZM13 11.8V9.4H11.8V11.8H2.2V9.4H1V11.8C1 12.4627 1.53726 13 2.2 13H11.8C12.4627 13 13 12.4627 13 11.8Z" fill="currentColor"/>
<path d="M7.60005 7.35147H7.47505V7.65325L7.68843 7.43986L7.60005 7.35147ZM9.57578 5.37574L9.66417 5.28735L9.57578 5.19896L9.48739 5.28735L9.57578 5.37574ZM7.60005 1H7.72505V0.875H7.60005V1ZM6.40005 1V0.875H6.27505V1H6.40005ZM6.40005 7.35147L6.31166 7.43986L6.52505 7.65325V7.35147H6.40005ZM4.42431 5.37574L4.5127 5.28735L4.42431 5.19896L4.33592 5.28735L4.42431 5.37574ZM3.57578 6.22427L3.48739 6.13588L3.39901 6.22427L3.48739 6.31265L3.57578 6.22427ZM7.00005 9.64853L6.91166 9.73692L7.00005 9.82531L7.08843 9.73692L7.00005 9.64853ZM10.4243 6.22427L10.5127 6.31265L10.6011 6.22427L10.5127 6.13588L10.4243 6.22427ZM13 9.4H13.125V9.275H13V9.4ZM11.8 9.4V9.275H11.675V9.4H11.8ZM11.8 11.8V11.925H11.925V11.8H11.8ZM2.2 11.8H2.075V11.925H2.2V11.8ZM2.2 9.4H2.325V9.275H2.2V9.4ZM1 9.4V9.275H0.875V9.4H1ZM7.68843 7.43986L9.66417 5.46413L9.48739 5.28735L7.51166 7.26309L7.68843 7.43986ZM7.47505 1V7.35147H7.72505V1H7.47505ZM6.40005 1.125H7.60005V0.875H6.40005V1.125ZM6.52505 7.35147V1H6.27505V7.35147H6.52505ZM4.33592 5.46413L6.31166 7.43986L6.48843 7.26309L4.5127 5.28735L4.33592 5.46413ZM3.66417 6.31265L4.5127 5.46413L4.33592 5.28735L3.48739 6.13588L3.66417 6.31265ZM7.08843 9.56014L3.66417 6.13588L3.48739 6.31265L6.91166 9.73692L7.08843 9.56014ZM10.3359 6.13588L6.91166 9.56014L7.08843 9.73692L10.5127 6.31265L10.3359 6.13588ZM9.48739 5.46413L10.3359 6.31265L10.5127 6.13588L9.66417 5.28735L9.48739 5.46413ZM12.875 9.4V11.8H13.125V9.4H12.875ZM11.8 9.525H13V9.275H11.8V9.525ZM11.925 11.8V9.4H11.675V11.8H11.925ZM2.2 11.925H11.8V11.675H2.2V11.925ZM2.075 9.4V11.8H2.325V9.4H2.075ZM1 9.525H2.2V9.275H1V9.525ZM1.125 11.8V9.4H0.875V11.8H1.125ZM2.2 12.875C1.60629 12.875 1.125 12.3937 1.125 11.8H0.875C0.875 12.5318 1.46822 13.125 2.2 13.125V12.875ZM11.8 12.875H2.2V13.125H11.8V12.875ZM12.875 11.8C12.875 12.3937 12.3937 12.875 11.8 12.875V13.125C12.5318 13.125 13.125 12.5318 13.125 11.8H12.875Z" fill="currentColor"/>
</svg>
