<svg width="1em" height="1em" viewBox="0 0 14 14" fill="none" xmlns="http://www.w3.org/2000/svg">
<path fill-rule="evenodd" clip-rule="evenodd" d="M5.66659 11.0002C2.72107 11.0002 0.333252 8.61235 0.333252 5.66683C0.333252 2.72131 2.72107 0.333496 5.66659 0.333496C8.6121 0.333496 10.9999 2.72131 10.9999 5.66683C10.9999 6.8993 10.5819 8.03414 9.87982 8.93726L13.4713 12.5288L12.5285 13.4716L8.93702 9.88007C8.03389 10.5821 6.89906 11.0002 5.66659 11.0002ZM9.66661 5.66683C9.66661 7.87596 7.87575 9.66683 5.66661 9.66683C3.45747 9.66683 1.66661 7.87596 1.66661 5.66683C1.66661 3.45769 3.45747 1.66683 5.66661 1.66683C7.87575 1.66683 9.66661 3.45769 9.66661 5.66683Z" fill="currentColor" />
</svg>
