<svg width="1em" height="1em" viewBox="0 0 22 22" fill="none" xmlns="http://www.w3.org/2000/svg">
<path fill-rule="evenodd" clip-rule="evenodd" d="M17.6562 19.897L19.8733 17.6798L19.0925 14.843L19.4327 14.0305L22 12.5818V9.44645L19.44 7.99173L19.1055 7.18067L19.8961 4.34235L17.6774 2.12683L14.8403 2.90748L14.0296 2.56758L12.5808 0H9.44544L7.99072 2.56004L7.17985 2.89446L4.34198 2.10281L2.1267 4.31809L2.90748 7.15568L2.56758 7.96635L0 9.41514V12.5496L2.55774 14.0076L2.89252 14.8193L2.10197 17.6572L4.31809 19.8733L7.15567 19.0925L7.96644 19.4325L9.41527 21.999H12.5498L14.0067 19.4412L14.8183 19.1065L17.6562 19.897ZM17.8527 12.6256L16.9809 14.7077L17.6362 17.0885L17.0678 17.6569L14.6921 16.9951L12.609 17.8542L11.3874 19.999H10.5829L9.37143 17.8528L7.29157 16.9808L4.90948 17.6362L4.34205 17.0688L5.00387 14.693L4.14484 12.6101L2.00002 11.3875V10.583L4.14712 9.37147L5.01921 7.29152L4.36377 4.90944L4.93003 4.34318L7.30578 5.00592L9.38956 4.14652L10.6093 1.99997H11.4129L12.6245 4.14707L14.7044 5.01917L17.087 4.3636L17.6558 4.93163L16.9941 7.30693L17.8535 9.39053L20 10.6103V11.4139L17.8527 12.6256ZM11 15C8.79084 15 6.99998 13.2092 6.99998 11C6.99998 8.79089 8.79084 7.00003 11 7.00003C13.2091 7.00003 15 8.79089 15 11C15 13.2092 13.2091 15 11 15ZM13 11C13 12.1046 12.1046 13 11 13C9.89543 13 9 12.1046 9 11C9 9.89543 9.89543 9 11 9C12.1046 9 13 9.89543 13 11Z" fill="currentColor" />
</svg>
